<svg width="24" height="48" viewBox="0 0 24 48" fill="none" xmlns="http://www.w3.org/2000/svg">
<g clip-path="url(#clip0_4969_9657)">
<path d="M7.68057 12L20.6806 12" stroke="#002D35" stroke-width="2" stroke-linecap="round" stroke-linejoin="round"/>
<path d="M1 12C1 12.8284 1.67157 13.5 2.5 13.5C3.32843 13.5 4 12.8284 4 12C4 11.1716 3.32843 10.5 2.5 10.5C1.67157 10.5 1 11.1716 1 12Z" fill="#002D35"/>
<path d="M17 8L21 12L17 16" stroke="#002D35" stroke-width="2" stroke-linecap="round" stroke-linejoin="round"/>
</g>
<g clip-path="url(#clip1_4969_9657)">
<path d="M7.68057 36L20.6806 36" stroke="#002D35" stroke-width="2" stroke-linecap="round" stroke-linejoin="round"/>
<path d="M1 36C1 36.8284 1.67157 37.5 2.5 37.5C3.32843 37.5 4 36.8284 4 36C4 35.1716 3.32843 34.5 2.5 34.5C1.67157 34.5 1 35.1716 1 36Z" fill="#002D35"/>
<path d="M17 32L21 36L17 40" stroke="#002D35" stroke-width="2" stroke-linecap="round" stroke-linejoin="round"/>
</g>
<defs>
<clipPath id="clip0_4969_9657">
<rect width="24" height="24" fill="white"/>
</clipPath>
<clipPath id="clip1_4969_9657">
<rect width="24" height="24" fill="white" transform="translate(0 24)"/>
</clipPath>
</defs>
</svg>
