<svg width="24" height="24" viewBox="0 0 24 24" fill="none" xmlns="http://www.w3.org/2000/svg">
<g clip-path="url(#clip0_5531_560)">
<path d="M18 12C21.3137 12 24 9.31371 24 6C24 2.68629 21.3137 0 18 0C14.6863 0 12 2.68629 12 6C12 9.31371 14.6863 12 18 12Z" fill="white"/>
<path d="M18 24C21.3137 24 24 21.3137 24 18C24 14.6863 21.3137 12 18 12C14.6863 12 12 14.6863 12 18C12 21.3137 14.6863 24 18 24Z" fill="white"/>
<path d="M6 24C9.31371 24 12 21.3137 12 18C12 14.6863 9.31371 12 6 12C2.68629 12 0 14.6863 0 18C0 21.3137 2.68629 24 6 24Z" fill="white"/>
<path d="M6 0C6 3.31437 8.68563 6 12 6C8.68563 6 6 8.68563 6 12C6 8.68563 3.31437 6 0 6C3.31437 6 6 3.31437 6 0Z" fill="#FE7144"/>
</g>
<defs>
<clipPath id="clip0_5531_560">
<rect width="24" height="24" fill="white"/>
</clipPath>
</defs>
</svg>
